
<global>
amp_veltrack=0
</global>

<group>
amp_veltrack=0
ampeg_decay=20
ampeg_release=0.35
ampeg_sustain=0
group_label=Group_0-45
lpc_hicc1=42
lpc_locc1=0

<region>
hikey=a#2
hivel=127
lokey=a2
lovel=1
lpc=f/ATQkOlpcL7T49CVBYowqzX0EEKCaXBSyZnQaL8pcBcjsk+6jGdQK6tqMBrqk5An3jav6l8v78tcTZABtvDv+3hrj89YFXA5u6yQNq7zMAjK5NARAAnwCjm4z9BrzW/
lpc_rms=-29.36
offset=303
pitch_keycenter=a#2
sample=BassClarinet_turn_minor_PP_A#2.opus
tune=-29
</region>

<region>
hikey=a#3
hivel=127
lokey=a3
lovel=1
lpc=GlFMQdE31MEEpZhB4ZbCwGs4hj8UZAk+hNgbPikl1L7ob/y/oERWQJbeN78ASRbA261pQCnVWMCLKzlAFHhJwFBYdEBJ8oTABPBnQOzCTsA9JFVAkxBVwKh1BkA60K6+
lpc_rms=-33.97
pitch_keycenter=a#3
sample=BassClarinet_turn_minor_PP_A#3.opus
tune=-29
</region>

<region>
hikey=G5
hivel=127
lokey=a4
lovel=1
lpc=MEADQg2wqcKen61ClZIywm1DW0HMKLjAszW3QNlpa8C4r3e/dBNqQBSIOsDzoo8/+B6kPoEEpD+ImcS/D18RwMHaokBsRrjAyKj0QNsS3MCmMqhAODnBv/mlrcCnUJ1A
lpc_rms=-27.32
offset=1946
pitch_keycenter=A#4
sample=BassClarinet_turn_minor_PP_A#4.opus
tune=-43
</region>

<region>
hivel=127
key=c2
lovel=1
lpc=wYb6QYQWesI7NlRCNUATwqjg2EHHKbPBO3dzQfKjK8F2LvVAyOJpwLn10z8Kuk7AYqzDQI+rD8FRFCxB/sH1wBN1YkDMCpS/8fKzP/f8X73ACFg/fFwTwKj/c0B+qDfA
lpc_rms=-25.93
offset=993
sample=BassClarinet_turn_minor_PP_C2.opus
tune=-43
</region>

<region>
hikey=c3
hivel=127
lokey=b2
lovel=1
lpc=W/NWQkMN98JaldVCji5owg/26UF5nFfB4sgIQecr+8BeTKxA7cGWPl69v7/C2/S/jrZHQMIU1r/cI8xAMa3SwMER+z+Q7bK/gS+SQA+JncD40R9AeMjnvykvYsBpRndA
lpc_rms=-28.52
offset=3554
pitch_keycenter=c3
sample=BassClarinet_turn_minor_PP_C3.opus
tune=-26
</region>

<region>
hikey=c4
hivel=127
lokey=b3
lovel=1
lpc=FKisQidLYcN33XFDavsbw5UaqkIAUj7CVfyKQSqvyr+ex4jAPSoiQe5qkT/aJ2DBuyzgQPbsBz9cWoZA64stwW9GJkFLLObA0dmSPjGwqUBeNpPAoCrWP4gC3z8rVsi+
lpc_rms=-18.51
offset=2054
pitch_keycenter=c4
sample=BassClarinet_turn_minor_PP_C4.opus
tune=-24
</region>

<region>
hikey=d2
hivel=127
lokey=c#2
lovel=1
lpc=qIcmQtXHxsIl+sRCoZtdwrm7ikGgT9zAuDYeQc1ZGsFDMXk/IWWPQB07kL6TiBDBs+J/QTIvmMHFEKBBsBdXwdl3vkA2L4/AzFITQTQUMsGCqghBW1xZwD2Y6D0qGua+
lpc_rms=-25.99
offset=8482
pitch_keycenter=d2
sample=BassClarinet_turn_minor_PP_D2.opus
tune=-25
</region>

<region>
hikey=d3
hivel=127
lokey=c#3
lovel=1
lpc=dagpQixcwMLPqpxCblQXwlamokFpuUrBjjMMQWP/rsDPF/8/ARKWQPuNt8AmCKm/Wl1+QK0E6b9ckwNAs9/3v71iY0DrUqTA6Z2MQCKldb99apy/NhEJwIFqoj/pb1I/
lpc_rms=-29.66
pitch_keycenter=d3
sample=BassClarinet_turn_minor_PP_D3.opus
tune=-31
</region>

<region>
hikey=d4
hivel=127
lokey=c#4
lovel=1
lpc=E3JkQueS9cL4WdBC+j5owsj98EFLJCDBYvqeQKpWcMGgyTFBGZ9HwBD4rkC08KnAKxQIQTRuS8EFJkVBBZjJwHV6V8AaRLxA7aDAwH3/tECcop+/4rpIv1tPhMBAwK9A
lpc_rms=-21.16
pitch_keycenter=d4
sample=BassClarinet_turn_minor_PP_D4.opus
tune=-22
</region>

<region>
hikey=e2
hivel=127
lokey=d#2
lovel=1
lpc=EzIQQu2drsL9UqtCxxlGwvw6oEE6siPB1EMwQbXtBcHl4QHARtEWQbtFpcDHyIHAOMENQezm7cBvDX9AEoCtPywMfcBKZ8I/NCXUPxkxNj/aPXXAZtAwQEuMSb+Vx3i+
lpc_rms=-27.77
offset=122
pitch_keycenter=e2
sample=BassClarinet_turn_minor_PP_E2.opus
tune=-27
</region>

<region>
hikey=e3
hivel=127
lokey=d#3
lovel=1
lpc=Lfs3Qg/k0sKoE7VCD19EwnCVk0Hmv+M/FxwqwLbE6r6jpRq/lEgGQbGhAcG4gzTAVoUDQUWxq8Ao164/ty2bQEDaw8DSZCs/8lDoPdu5HEAydWjA5y4AQD4AoL9Zv3A/
lpc_rms=-28.58
offset=4058
pitch_keycenter=e3
sample=BassClarinet_turn_minor_PP_E3.opus
tune=-28
</region>

<region>
hikey=e4
hivel=127
lokey=d#4
lovel=1
lpc=IPNeQmG/+cLnQN1CZOpxwvhGEUKR3tPBFQpvQQOhuD8FNILBgqKdQcySesHalSdBEkxKwQtFLEE5tvu/SMpLvyT8FD8RC+6/YVxLQONX7MDSdDBBwOevwBckPcAl3ZRA
lpc_rms=-20.06
offset=4232
pitch_keycenter=e4
sample=BassClarinet_turn_minor_PP_E4.opus
tune=-18
</region>

<region>
hikey=f#2
hivel=127
lokey=f2
lovel=1
lpc=peZbQk1d7cIHVbpCOuMQwlVCGcCX7hVAY3xCQUW5pcA96STBPDSGQbinuD0xIoDBeG5oQemkyMB3GhVAntwRQGFaIcB1Qym/BBINQO+2wsDhNJ5AF/WWv9jg1b+T9Mc/
lpc_rms=-25.46
pitch_keycenter=f#2
sample=BassClarinet_turn_minor_PP_F#2.opus
tune=-31
</region>

<region>
hikey=f#3
hivel=127
lokey=f3
lovel=1
lpc=wnFPQ7+q48OqmqxDULoawxHQfkJxgn/BIc4oQlF9YsIMOrRB6LPEQfWJY8H3hgTCMc+AQakgVkGBW4LBLxALQpHIhsGp5pnBwWygQcQe6kGfCpHCED5WQjACLcIjtNJB
lpc_rms=-17.02
offset=1564
pitch_keycenter=f#3
sample=BassClarinet_turn_minor_PP_F#3.opus
tune=-35
</region>

<region>
hikey=f#4
hivel=127
lokey=f4
lovel=1
lpc=Kvj/QqX5r8PmeLpDddJCw9LUZkLKIgDCHKeEQkrojsI578FBusluQbpGi8GHwWPAdMk+QTRQqkB00YTBpzuOQaCIhcHg0Ya/bz2UQRt6iMEkQbFBlyvNwf8EoUDHitFA
lpc_rms=-15.71
offset=11173
pitch_keycenter=f#4
sample=BassClarinet_turn_minor_PP_F#4.opus
tune=-24
</region>

<region>
hikey=g#2
hivel=127
lokey=g2
lovel=1
lpc=rucYQmqXicKLxjVCHqX/wXtpsEHNZ4jBTJuiQZEraMEm/CtAGbIeQU8uJcH9xxlBMXjowOn6iT+sEYA/OmyzP7mXvz/GWp7AnHphQAskpL+bI2bAHbPWQBGJzMBBQzFA
lpc_rms=-25.76
offset=7720
pitch_keycenter=g#2
sample=BassClarinet_turn_minor_PP_G#2.opus
tune=-39
</region>

<region>
hikey=g#3
hivel=127
lokey=g3
lovel=1
lpc=41KRQjN1BMPhDZRCzCokwiI6y0EhHrK/b8LfQOY/EsGnlL1Ayl1MQAo+xkB2oDXB9ySawH3xS0EmpU/BtMs2QYiDy7+DmALAvm1SQF0Ch8AFSNu/ymMowBxspcDMwBNB
lpc_rms=-21.00
offset=3806
pitch_keycenter=g#3
sample=BassClarinet_turn_minor_PP_G#3.opus
tune=-47
</region>

<region>
hikey=g#4
hivel=127
lokey=g4
lovel=1
lpc=ZVlrQh3JG8NpVR9DSVuewmPExkEMNtHBHfoTQjLhpME6B6/ArB2TQczkMcEH5S/AEmUgP2UghkC2F84/OG8rwF29q8DRV1FBS/kbwZ+r4b++6xFBPNFJvyrVQcGexgZB
lpc_rms=-20.42
offset=7652
pitch_keycenter=g#4
sample=BassClarinet_turn_minor_PP_G#4.opus
tune=-32
</region>
</group>

<group>
amp_veltrack=0
ampeg_decay=20
ampeg_release=0.35
ampeg_sustain=0
group_label=Group_46-90
lpc_hicc1=84
lpc_locc1=43

<region>
hikey=a#2
hivel=127
lokey=a2
lovel=1
lpc=IbGgQXflZsKLVI9CaLhawoul/EFftnbBGk/5QJ5zuMCmwppAPygywMYNsT+fUhPAsL3uP2G+DD6pXI0/1mVZwCb1eECdVVrAEvkiQC9hFcDK41FAJKujwAZcbED7UhC/
lpc_rms=-22.23
offset=6469
pitch_keycenter=a#2
sample=Bass_turn_minor_MF_A#2.opus
tune=-26
</region>

<region>
hikey=a#3
hivel=127
lokey=a3
lovel=1
lpc=R0NOQUaCEMI3DTNC3l0EwqFijEFdMRHBRtj4QKgO1cBF/xxAIlgpQK2uhsB5lSG+JyR6QB/xOcAcrLA/NpuKv/uaoT+su3a+WFmnv0sHyj5mfx1ANN58wJigLECjiVi/
lpc_rms=-23.32
offset=907
pitch_keycenter=a#3
sample=Bass_turn_minor_MF_A#3.opus
tune=-23
</region>

<region>
hikey=G5
hivel=127
lokey=a4
lovel=1
lpc=mmytQQwRacKtOYlCp1lJwjKm8UH4nrfBKUfKQZahs8EmBShB29m/P5Gdvb8jJRvB8CNgQYhfxMCSuTrAHKwBQaCbx8AB/om+8SeYQHlq58CUkRZBwMrrwCov8z+fN2c/
lpc_rms=-21.16
offset=3697
pitch_keycenter=A#4
sample=Bass_turn_minor_MF_A#4.opus
tune=-35
</region>

<region>
hivel=127
key=c2
lovel=1
lpc=c0e7Qf/cisJcjK9CM+p5wsbo2UGIcQHBa0nJQI6CEcEZIcBAK4SEvz4/uL/8mnI/PywQP87qAMDAWMVAb6/twBwEHT+CmrJAZk6RwBPA2z2e1VJADFxTwNR11z6fixA/
lpc_rms=-21.29
offset=14003
sample=Bass_turn_minor_MF_C2.opus
tune=-35
</region>

<region>
hikey=c3
hivel=127
lokey=b2
lovel=1
lpc=ShKuQVOYgMJwqaVCFd6BwnjPGEKBt6fBBI1MQZAgE8Fx685Ap+1ewPdDCEBDQEXA12YSQOWYQr9p71xAujGewLXJH0CBHau/2N9DQMZGmcCx161AosS4wPiHTEAXh5W+
lpc_rms=-21.49
offset=4491
pitch_keycenter=c3
sample=Bass_turn_minor_MF_C3.opus
tune=-13
</region>

<region>
hikey=c4
hivel=127
lokey=b3
lovel=1
lpc=CsEQQl3z18JsHwhDb6e8wlKICUI/P5y/M+/5O4287MAqkCVAGegEQfXkiMA9pm7BsmjCQf2TjMF98+BArFptQCfUZsGdNaFBdDCDweUUkUBNTfJAJpZQwaAwC0FapcS/
lpc_rms=-16.09
offset=3241
pitch_keycenter=c4
sample=Bass_turn_minor_MF_C4.opus
tune=-18
</region>

<region>
hikey=d2
hivel=127
lokey=c#2
lovel=1
lpc=QrK2QXfFhML8J6BC0pRJwpCzXkGDV0dATLjPv+/iYMA1G/I/KXNOP5aNtz94ep3AYPKhQCx8k8CMKrlACuSOwDMCMz4OALQ/XtX3P/0d18B0GwRBGlHNwLJwLEAzUWO+
lpc_rms=-21.32
offset=11312
pitch_keycenter=d2
sample=Bass_turn_minor_MF_D2.opus
tune=-9
</region>

<region>
hikey=d3
hivel=127
lokey=c#3
lovel=1
lpc=Y8rCQT6okcJ3lbdCa6iEwmTEAkJYTG/BcQBTQVyrfMFYiUxBoYWIwA+TjL/BPsa/IJNiQBrwFMAb95VATQ+fwOQPvb45h4NA2Z8+wEULtr7J92dAQ0XZwBD9uUA4O9q/
lpc_rms=-20.81
offset=2022
pitch_keycenter=d3
sample=Bass_turn_minor_MF_D3.opus
tune=-22
</region>

<region>
hikey=d4
hivel=127
lokey=c#4
lovel=1
lpc=MqUjQqTx1sKl9+RC596JwnxSCkLzx5vBgsstQeS8HMFO661AuIJ1QMDUL8BXqVPAx5yoPx4RJT9+m+U/AN1evvMyMsBnTiTAH7jzQOsyFcHUSDtBRT3hwO73UMAtQZxA
lpc_rms=-17.09
offset=4306
pitch_keycenter=d4
sample=Bass_turn_minor_MF_D4.opus
tune=-20
</region>

<region>
hikey=e2
hivel=127
lokey=d#2
lovel=1
lpc=EASiQZhjbMItMpJC7GNMwg+TrUHHVrXAv4B7QM2hg8CNITm/yAmJQI/HWsAI5PC9bJodQKy49L/VsjxAORWJwHx7JUCBKVq/U1hsP1sU3r8FVzdAkj2LwNTrTUBm2ye/
lpc_rms=-20.95
offset=8960
pitch_keycenter=e2
sample=Bass_turn_minor_MF_E2.opus
tune=-22
</region>

<region>
hikey=e3
hivel=127
lokey=d#3
lovel=1
lpc=QO3pQbKTpsLJdMZCAUCTwt8YOEIdCNbBxy6GQdijRcETd6lAImpdQNWR9sDFNopA9QjjP8FnoMCSbLhADKS5PjvqBME9GwtBp66swHyb3D+o9StAY89KwJgwgL8wueM/
lpc_rms=-19.89
offset=2027
pitch_keycenter=e3
sample=Bass_turn_minor_MF_E3.opus
tune=-22
</region>

<region>
hikey=e4
hivel=127
lokey=d#4
lovel=1
lpc=eHAgQmM70sIAneRCMaOOwvt9AkLlWsnBrDADQlCV2cEitYdBkEVbwbldQUFLE0zBr/gMQTlrTsAuLPu+bqUWQZtaXMHhre5AuNafQPUjZMHPRDBBRaxdwJ2au7+5tCBA
lpc_rms=-15.30
offset=3633
pitch_keycenter=e4
sample=Bass_turn_minor_MF_E4.opus
tune=-15
</region>

<region>
hikey=f#2
hivel=127
lokey=f2
lovel=1
lpc=+XG2Qd/cYMKs5T9C3iYbwe9LPsFTAuFA/qSLQII0jcD6zUrADFkIQWKIF8EMfblAb+zBv3ym2L9rtpNAH6CcwDrLNUBIUHG/ckoaPl62W7+ZqYVAe7LwwN4SsUA2V5q/
lpc_rms=-19.11
offset=8119
pitch_keycenter=f#2
sample=Bass_turn_minor_MF_F#2.opus
tune=-24
</region>

<region>
hikey=f#3
hivel=127
lokey=f3
lovel=1
lpc=BiWVQoYxWcNZXndDfVMVw/XchUJH+x7CokcnQuxnT8Ko1idCUHKywLzijsE7J4FAfJkgQTOJEMFJSLw/bv5xQeC50MEHgM5Bb5XHwVuA1UF6UuPBnNb4QXH86sH2ZE1B
lpc_rms=-13.18
offset=1559
pitch_keycenter=f#3
sample=Bass_turn_minor_MF_F#3.opus
tune=-21
</region>

<region>
hikey=f#4
hivel=127
lokey=f4
lovel=1
lpc=51xxQn0WLsOX9VFDH+cQw0EnhUInHcTBfvWSQZIHqMEoy0FBtrynQIZXYMGnZdtA6OiLvoVqPcDb/RRB5zYWwKQs+cAqeunAPUcBQvDwI8J+MA5CXJ/DwTjvCEHmtIY/
lpc_rms=-12.06
offset=8385
pitch_keycenter=f#4
sample=Bass_turn_minor_MF_F#4.opus
tune=-14
</region>

<region>
hikey=g#2
hivel=127
lokey=g2
lovel=1
lpc=J8veQbMKn8InacBC/a2NwtwBHUKkBYbBWUzKQLy5m8BrbIdAX7ixv5mMur6jGHzAAJAMQSOrGMH22g5B+peawOqCrr8WypRAmgO1wIxgiUAbQqY+xWmAwHkbL0BpFZG+
lpc_rms=-19.64
offset=903
pitch_keycenter=g#2
sample=Bass_turn_minor_MF_G#2.opus
tune=-23
</region>

<region>
hikey=g#3
hivel=127
lokey=g3
lovel=1
lpc=NawwQv+08sL/nPhCkLR5wjMht0EKq0fBiToxQZScgsG8SYpBwbxIwDHZq8BVTZTAxsbyQALqNECw9AzBgWsvQfe8CMHrqMq/wZDmQEW5PsDVh2W/a4Qdv6lMmz80Ng++
lpc_rms=-15.38
offset=1550
pitch_keycenter=g#3
sample=Bass_turn_minor_MF_G#3.opus
tune=-30
</region>

<region>
hikey=g#4
hivel=127
lokey=g4
lovel=1
lpc=gOUDQmjnusJOBdlCaj6KwpBmEkInQBvCtgpVQpNSRsIr/+JBQRerwMLKHMGeiTlBp70AwTUgiEBSHd+/RkAkQSavqMG+/4tBWLzIwOO/nz/MXJvAzEQ9QUXaP8GF76BA
lpc_rms=-17.95
offset=3600
pitch_keycenter=g#4
sample=Bass_turn_minor_MF_G#4.opus
tune=-25
</region>
</group>

<group>
amp_veltrack=0
ampeg_decay=20
ampeg_release=0.35
ampeg_sustain=0
group_label=Group_91-127
lpc_hicc1=127
lpc_locc1=85

<region>
hikey=a#2
hivel=127
lokey=a2
lovel=1
lpc=eNNDQYy8AcLGCQ1C08aawal2oED1tiTAb2oOQZWrOcHuLoBAA+tXQNHmN8CxMLq/GVdIQKfR/L6pkdy/wPI9QPDpYsAHIN8/gP6Yv0bO5z8MO1m/VRaLPmY1hb9QUTU/
lpc_rms=-16.46
offset=1572
pitch_keycenter=a#2
sample=Bass_turn_minor_FF_A#2.opus
tune=-13
</region>

<region>
hikey=a#3
hivel=127
lokey=a3
lovel=1
lpc=ePIsQdi628G7XvJB2PSbwbIZFUG6gZXA7HGyQLgFyMAG/mpA6Zl6PrOYSMBDTxxA9Y1xvbjwpr/9gAlAa7T1vo3DyL+tW94/Utyxv2v/vrtcfbk/fVOLv9LGCD/ku9q+
lpc_rms=-17.89
offset=7985
pitch_keycenter=a#3
sample=Bass_turn_minor_FF_A#3.opus
tune=-20
</region>

<region>
hikey=G5
hivel=127
lokey=a4
lovel=1
lpc=JWZqQa4dB8KhQvVBAB1xwTR0sEBrYmLA3WzrQFMwI8F6FPlAoU9iwMw4YkCVn+jA1m26QJ0Ddb/c0648vXrTPxHDccBikO0/2XPfP4W7VMAZ0FVA1CbBv9fkq78wsto/
lpc_rms=-18.89
offset=2071
pitch_keycenter=A#4
sample=Bass_turn_minor_FF_A#4.opus
tune=-33
</region>

<region>
hivel=127
key=c2
lovel=1
lpc=QUYvQTEJ28HAudlB1lhIwZ0oqz9cI4u/aG2GQL5q/r0GXeTACv/eQHZJ4b+H4t2/SZmjP5zKnz9eS2S/XnpDv59GED/NFoW/qMMoQDQvdcDpFSdA6HNlPmegjb81sak+
lpc_rms=-16.77
offset=8755
sample=Bass_turn_minor_FF_C2.opus
tune=-19
</region>

<region>
hikey=c3
hivel=127
lokey=b2
lovel=1
lpc=pSFbQfLtEsJ+wCNC+UzOwVcAR0GhtQ3B7oUyQWJKK8Fp5ZtAXiHCv1Vvqj/l+OK/dfIYQK51ur/U9Ds/wkWLvjE1yr0Tr4q/6RHqP9UE47/oo0FAvl+FwE70NECRT02/
lpc_rms=-17.82
offset=1328
pitch_keycenter=c3
sample=Bass_turn_minor_FF_C3.opus
tune=-2
</region>

<region>
hikey=c4
hivel=127
lokey=b3
lovel=1
lpc=JsSZQai/Q8Lc3j9COCW2wYajEkFO/BPBUkRIQT0eccFRVh1BEVJKwCXriT8CofK+vQ8OQP8/msDnzxa+EkiqQFrCb78xTyXAMY17P+ZkL8AFkatAP2NZwPtPQD9vqJE+
lpc_rms=-12.35
offset=1003
pitch_keycenter=c4
sample=Bass_turn_minor_FF_C4.opus
tune=-10
</region>

<region>
hikey=d2
hivel=127
lokey=c#2
lovel=1
lpc=i4I4Qbiu4cEtxOJBr0SCwYA7BkG1gPTAIyYWQef9s8AL15a/0yZ9P1mYkz8SFdm+/Lc7v6nXtj90FYQ/fV48wPCGBb/qleE/0frbPmnhJjz/HkzAOBKbQPTaWcCaCXg/
lpc_rms=-16.53
offset=4116
pitch_keycenter=d2
sample=Bass_turn_minor_FF_D2.opus
tune=+5
</region>

<region>
hikey=d3
hivel=127
lokey=c#3
lovel=1
lpc=rBeEQSCAPMLtM2hCDLoowuRJvUFGO5PBa86rQfkQnMG9FBdBqPMJv5aHub7hr7vA0CUjQWWOssAxlIS/TQQwQF/kG7+OC5u/9kQIP5GhHT+tq/w/g1HlwHPsy0C5Qdy/
lpc_rms=-17.12
offset=508
pitch_keycenter=d3
sample=Bass_turn_minor_FF_D3.opus
tune=-8
</region>

<region>
hikey=d4
hivel=127
lokey=c#4
lovel=1
lpc=z9rVQRTnjML0RY9CzkMOwoKogEHa0pvBVeDMQS6tycExR2JBYlYpwDFNAcCThRtAUaUXwINC1j+zItE+tuq9PrUrk787zti/1VlJP8KVhb8le9FApDyPwD/XHMCHdDJA
lpc_rms=-11.70
offset=1003
pitch_keycenter=d4
sample=Bass_turn_minor_FF_D4.opus
tune=-9
</region>

<region>
hikey=e2
hivel=127
lokey=d#2
lovel=1
lpc=eMEyQQM67sGQIghCdYinwUY9vEASfgnA6ojxQA4w9MA1Lok/s1rQP/J+ET8bFFvAP+g3QL5D9j1Y8DY/sJ0wwP5rHD9WHRVAcdVAwJ/CAEDjGw7AqL5NQKO+DMDAJxc/
lpc_rms=-16.46
offset=9062
pitch_keycenter=e2
sample=Bass_turn_minor_FF_E2.opus
tune=-3
</region>

<region>
hikey=e3
hivel=127
lokey=d#3
lovel=1
lpc=Ry2dQUnkV8KggXpCBQkxwtOD0kE4lI7BEPtrQdQqKcGDGl1AvwGnQEEiJMFJOadA/ZpeP2eqGb7Z9CG/U8eGP49Fvr/ptdk/pYmXv17Tor/uRTxAY9RPwJ2CD0Cofyu/
lpc_rms=-15.73
offset=1886
pitch_keycenter=e3
sample=Bass_turn_minor_FF_E3.opus
tune=-7
</region>

<region>
hikey=e4
hivel=127
lokey=d#4
lovel=1
lpc=Vii8QSlEesKK7YlCFE8dwqNCKkFosN3AvH+NQST3i8E7I7lA+MYzQKl0jsDOGgNA8iYGwO9i3T8Xz5C+oM1kQCdGpMCdV4s/biI8QCCBaMBXSQpAJTsSwItyzz+LhOA+
lpc_rms=-13.91
offset=2185
pitch_keycenter=e4
sample=Bass_turn_minor_FF_E4.opus
tune=-12
</region>

<region>
hikey=f#2
hivel=127
lokey=f2
lovel=1
lpc=EVhiQYMFFcJ2IiNC7n/DwXtVC0E7woTAmwIHQXMiC8GOpYk/pyz4P2vnLD87nyPAkm3UPxHQcz8hKIE/4USBwJQI4D9Ocva+NFTRPytyAsCJCgxAJO9hv0AGq7+VO58/
lpc_rms=-14.16
offset=6071
pitch_keycenter=f#2
sample=Bass_turn_minor_FF_F#2.opus
tune=-10
</region>

<region>
hikey=f#3
hivel=127
lokey=f3
lovel=1
lpc=khv/QdQurMKJ6bNCWRxMwqkC7kFtZtnBQqe3QXpPjsEj7uhAYrcLQWaXVcFNYwBAiii2QCFEAcDWZDfAqcFVQKk537/Rz/w+OHYOQOzAhr8EzY7ACk5HQILcBj+VqDW+
lpc_rms=-11.60
offset=3119
pitch_keycenter=f#3
sample=Bass_turn_minor_FF_F#3.opus
tune=-11
</region>

<region>
hikey=f#4
hivel=127
lokey=f4
lovel=1
lpc=bUz2QWk5oMJ0natCxPxdwncP7EGWkGzB9XNZQQnQj8EWtUBB1wo5wONbJL/cmY+9xsusPgbnnUCWU0PBdwmDQXXDUMFsggBAKSuoQEBz07/L5hXAwrKJQIkS4sA1RI1A
lpc_rms=-10.43
offset=3063
pitch_keycenter=f#4
sample=Bass_turn_minor_FF_F#4.opus
tune=-19
</region>

<region>
hikey=g#2
hivel=127
lokey=g2
lovel=1
lpc=8IBAQYhu+8HXJQpCd5KewQ7uhEDW6fG9aPfPQIVRB8GP6ie9f9bGQMe7acBoskfA37PAQP9M+b+4sqS/aUBKP8+fmb7OyCu/9ty8P90ygb8dG2S/pixpQMXMcsC24bQ/
lpc_rms=-13.96
offset=2654
pitch_keycenter=g#2
sample=Bass_turn_minor_FF_G#2.opus
tune=-8
</region>

<region>
hikey=g#3
hivel=127
lokey=g3
lovel=1
lpc=3UEQQk/LycKj19tCIMqEwhUR90GM6vPAi4WMv5kXAMGFsSxBaQU7QCazgcFhKUlB56puwAkLkUAF973AvIFTQJMkV0CFWyTBatwTQQ89ZsDfJLS/ME1kQK8YEcBuNvc+
lpc_rms=-12.29
offset=861
pitch_keycenter=g#3
sample=Bass_turn_minor_FF_G#3.opus
tune=-17
</region>

<region>
hikey=g#4
hivel=127
lokey=g4
lovel=1
lpc=Q/OrQcyLYcLjoGBC/VnjwYeOMUFx3ZnAVBpnQHWXncD2dGNArm4rPoLUlb+VAErAbKyaQBYVasAltWZArBIQQO+i1sAcj3JAonI6wBEFDz+Bj7lAsDobwMuxn8CELVNA
lpc_rms=-15.50
offset=4741
pitch_keycenter=g#4
sample=Bass_turn_minor_FF_G#4.opus
tune=-19
</region>
</group>

<group>
amp_veltrack=0
ampeg_attack=2
ampeg_release=0.35
group_label=PP
lpc_hicc1=42
lpc_locc1=0
volume=-3

<region>
hivel=127
key=A#2
loop_end=245316
loop_mode=loop_continuous
loop_start=82899
loop_xfade=30825
lovel=0
lpc=z/8eQmESwcJMi7NC5R4swnM9Q0FCAzzBoDKrQQwMjMFwFOe/+xWaQXayZMEngY3AnKsqQW3PQsAktfG//3/AP2puy0Bj1kPBjm4RQXkYeMCRTdU9vmxiQCqmu8BFyjNA
lpc_rms=-31.89
offset=5192
sample=Bass_sustain_PP_A#2.opus
</region>

<region>
hivel=127
key=A#3
loop_end=242150
loop_mode=loop_continuous
loop_start=81829
loop_xfade=30427
lovel=0
lpc=P/WrQddjS8KZ4ztC3USgwfkNEb9w5ylAHUWcQDE64sD4uLw+UOLJQAHSlMAlfKy/RLU2P7VxUUBlAijAqT1kvwY6VECw6+m/sdoaPqlbfr+MFxBAsef3PbIpj8DEeEtA
lpc_rms=-36.58
sample=Bass_sustain_PP_A#3.opus
</region>

<region>
hikey=G5
hivel=127
lokey=A#4
loop_end=228818
loop_mode=loop_continuous
loop_start=77324
loop_xfade=28752
lovel=0
lpc=AigIQlxzoMJlRJ5CQ3U5wvm2hUH+ebbABSRMQXipiMEPdaRA2zYKQXDNDMFidElAvjY9P7UaOMCjeVdAq0ADPiy61T7/sPXAsVYuQeYp0sD1AN2+VnYRQUd8RcE+IsRA
lpc_rms=-31.68
offset=1601
pitch_keycenter=A#4
sample=Bass_sustain_PP_A#4.opus
</region>

<region>
hivel=127
key=A2
loop_end=241028
loop_mode=loop_continuous
loop_start=81450
loop_xfade=30286
lovel=0
lpc=MlKmQjLdRMPK5TZDNuaywprIREGEsbHAgsfPQbFarsF7vX7AH4vdQV0mT8Fpz3/Bb0i8Qe3m3b9AnHrBNlWHQTpprL/4rznBBe4AQXl0qMC0Cp5A4UGhwPCJdb9yjzZA
lpc_rms=-26.92
offset=1740
sample=Bass_sustain_PP_A2.opus
tune=-5
</region>

<region>
hivel=127
key=A3
loop_end=252567
loop_mode=loop_continuous
loop_start=85349
loop_xfade=31737
lovel=0
lpc=I7vaQaDxiMIUdoRCVXL+wbZ6RkClk5RANsOyQL3mBMEeTDjA9tgkQcapkcB19qPAnLd3QJTtV0Dug4nApO+/vlJtGkBqDuC+HTXnvzzh8D6DfPY/ujiIP+WxpcCqg09A
lpc_rms=-35.83
offset=3176
sample=Bass_sustain_PP_A3.opus
tune=-1
</region>

<region>
hivel=127
key=A4
loop_end=254499
loop_mode=loop_continuous
loop_start=86002
loop_xfade=31979
lovel=0
lpc=nnG1Qtj3XsNulmNDNIcCw5pNK0IiJPXAVONeQXL4oMHprn9BtpsKQL/TkcF9ilBB9ejWwGeOcsDG7upA2jgVP+dgzD8s9grBJXu4QWp51sHlDjlB+5/lQNHek8H0T05B
lpc_rms=-21.74
offset=3423
sample=Bass_sustain_PP_A4.opus
tune=+1
</region>

<region>
hivel=127
key=B2
loop_end=244994
loop_mode=loop_continuous
loop_start=82790
loop_xfade=30785
lovel=0
lpc=YPdyQiv6BMNA5NRCh0Qdwq7Vpr+j4jTA76SCQaGqS8HN4AHAPlNkQZXpu8Bj4/7AeQUAQbF9lD94cxC/os+FPsy7e0CVgdjArWJ5QBRA9b6RyinAW4NpQCMA4MArsHtA
lpc_rms=-31.11
offset=704
sample=Bass_sustain_PP_B2.opus
tune=-2
</region>

<region>
hivel=127
key=B3
loop_end=258951
loop_mode=loop_continuous
loop_start=87506
loop_xfade=32539
lovel=0
lpc=U1kvQti84sKUfuNCfdVlwgV6x0DMm+9Ag0wRQS8MWcGrZHPA/v2jQWVWWcEadZDAXlPJQOkNrUDNbSnBn/vDQHo+db8fVku+O/QWwDNhtz8hmgNAhqEqvcnjpMBzbHBA
lpc_rms=-31.04
sample=Bass_sustain_PP_B3.opus
</region>

<region>
hivel=127
key=C#2
loop_end=246690
loop_mode=loop_continuous
loop_start=83363
loop_xfade=30998
lovel=0
lpc=lAKQQpM8IsPKShFDEQlrwlTtBcDhCTLBCP4fQlpD0sE4qJvBxb0LQgNi78DasKrBEak9Qa/jrkDPv4A/CaBPwBopBr81h3U/sa69QIQe2sCkJCI8QfsXQWwENMFWJnFA
lpc_rms=-28.57
offset=9542
sample=Bass_sustain_PP_C#2.opus
tune=-22
</region>

<region>
hivel=127
key=C#3
loop_end=251493
loop_mode=loop_continuous
loop_start=84986
loop_xfade=31602
lovel=0
lpc=A7qjQgXvNsMe+RRD+LhiwtKrqD9J0UbBnHcPQhPvkMHzP03B+1P5QY8udMEgxBTBuQZIQXEMDsHGMTRBkGYLwDuUQ8DAHHg/A+QYQDIZAsFCSx+8DEgjQRWumcFBNkxB
lpc_rms=-27.46
sample=Bass_sustain_PP_C#3.opus
tune=-5
</region>

<region>
hivel=127
key=C#4
loop_end=240676
loop_mode=loop_continuous
loop_start=81331
loop_xfade=30242
lovel=0
lpc=N/4KQ8WclcM+5DFD1KcSvzw8msF1IBrBs6E4QrDrMsIUuFJAOKlUQdt7k0Hk7RfCn2KgwNCt90GZhjnBQDJEwXOPyEDMiY9BuwpDwVt1/b7j4/tAuupVQLTL9MHX3adB
lpc_rms=-19.06
sample=Bass_sustain_PP_C#4.opus
</region>

<region>
hivel=127
key=C2
loop_end=258191
loop_mode=loop_continuous
loop_start=87249
loop_xfade=32443
lovel=0
lpc=kiuNQjSQJsMybB5DHC6KwpsBIMCYc8XAwaEOQuHPxsHs0WXBH17mQaaonsCQ4KDBZ+RDQQM5rkARRty/VNREwECeTb4ok0BA0nl/QAH9pMCXaQHA2sANQWwbssARTQ6/
lpc_rms=-29.22
offset=258
sample=Bass_sustain_PP_C2.opus
tune=-14
</region>

<region>
hivel=127
key=C3
loop_end=249266
loop_mode=loop_continuous
loop_start=84233
loop_xfade=31322
lovel=0
lpc=QNeKQt10HMOKzQNDT3mHwk9D4EFdLUPBo65AQeurKsHDV3FA3A7RQDLKfMBF+ZfAc0OWQMGDjb9RUG9A2AMEQPbQmcDJGs6/ZkaZQOnBnsB2rOu+GlYSQSsbh8GFsxtB
lpc_rms=-27.73
offset=4588
sample=Bass_sustain_PP_C3.opus
tune=-4
</region>

<region>
hivel=127
key=C4
loop_end=255655
loop_mode=loop_continuous
loop_start=86392
loop_xfade=32125
lovel=0
lpc=R0cGQ8XDqsO3L6FDhcMRw6Asg0FRr3FBoYDrQVOQN8IraGu/eIYqQrUpu8F5w5DBCxG0QeLRXUB/QavB2HkMQUZv5EDDsHy/IPOVwLkQQMDzTxRBKx4iwIjhWsH4QzxB
lpc_rms=-22.26
offset=13172
sample=Bass_sustain_PP_C4.opus
tune=-2
</region>

<region>
hivel=127
key=D#2
loop_end=260725
loop_mode=loop_continuous
loop_start=88106
loop_xfade=32762
lovel=0
lpc=CseFQtHGH8Nx7xJD5211wvqDGL/D+cDAsVgGQiLkt8Eqf1nBOvrGQXdkUcBUWFPBco6GQK1DuUByT29AmNtUwKdmo8At+qZAXrBYQKOn7sDisHy+Q488QZ7Hg8GcI+NA
lpc_rms=-28.67
offset=746
sample=Bass_sustain_PP_D#2.opus
tune=-9
</region>

<region>
hivel=127
key=D#3
loop_end=244535
loop_mode=loop_continuous
loop_start=82634
loop_xfade=30727
lovel=0
lpc=madJQkO93MLJTbNCX3YSwqVpnT9rjG8/QfIgQbo6IsFxAnpA8y5cQNyz0785v4HAWHOPQCbnD8CPsQ9AoS5JQCpN07+mvIjAWYRxQFJ/hsA6ELc/pIQPQDQu48CfW7NA
lpc_rms=-31.48
offset=445
sample=Bass_sustain_PP_D#3.opus
tune=-3
</region>

<region>
hivel=127
key=D#4
loop_end=260121
loop_mode=loop_continuous
loop_start=87901
loop_xfade=32686
lovel=0
lpc=L+kDQ1mPksM3hldD+TY0wgens8E/XlPA5uBAQmjzHcIQL81AiVBhQfBsi8C+mb3BXgwqQdlDpkAI2u5AaA3RP9pUc8BntA/B3JiKQLaLj0CW9ELBkVmxQdgtD8JuirxB
lpc_rms=-22.16
sample=Bass_sustain_PP_D#4.opus
tune=-1
</region>

<region>
hivel=127
key=D2
loop_end=258283
loop_mode=loop_continuous
loop_start=87280
loop_xfade=32455
lovel=0
lpc=3lOvQnhOVsPg80dDjKikwkVp4r/4QAzBovQ9QpXnDsIb0zfBJbL6QZx30MCqOZzBs1onQTJ2kkDqaNpA3PHWwARYocCDXa5ABA7ZQEgpX8FB2qRAZXEbQapJd8EbN8hA
lpc_rms=-26.51
offset=1449
sample=Bass_sustain_PP_D2.opus
tune=-13
</region>

<region>
hivel=127
key=D3
loop_end=258931
loop_mode=loop_continuous
loop_start=87500
loop_xfade=32536
lovel=0
lpc=E4KUQgyBKcMrNwxDL/5ZwvpxSb7m7B4/UtOcQfCseMFqqj3A/EyDQYllp8AEczLB3BQZQTHgmL9SAXk+c5CUQLi9Kj0eAKPAGJqEQAufEsGJSrxAGVWsQP6Rh8EuZipB
lpc_rms=-27.83
offset=2150
sample=Bass_sustain_PP_D3.opus
tune=-3
</region>

<region>
hivel=127
key=D4
loop_end=243040
loop_mode=loop_continuous
loop_start=82129
loop_xfade=30539
lovel=0
lpc=gjyxQi11R8M1FyVD7zuWwsE0FUJyOPXBs1rUQZbNj8FFafpAm5TDwJQ3OEFdNRnB8iMpP32KDEAsQJ5AlaHEv5XeCcACrafAPITcQMaKpsCqccK/fZjJQFtQDMGM4/JA
lpc_rms=-22.87
offset=4436
sample=Bass_sustain_PP_D4.opus
tune=-1
</region>

<region>
hivel=127
key=E2
loop_end=266813
loop_mode=loop_continuous
loop_start=90163
loop_xfade=33527
lovel=0
lpc=tXQAQvUAacK0Rh9CU4XPwbenlkEVrDjBUN9xQNoMj75Mkxs/U3wIP9f5/75rCJc/hUaVwHEr7UAxmrzA52GMQBirIEB8efLA8nnsQIJ8jMC+ljxABJ1+vyj7HcBkMog/
lpc_rms=-30.25
offset=10899
sample=Bass_sustain_PP_E2.opus
tune=-4
</region>

<region>
hivel=127
key=E3
loop_end=256265
loop_mode=loop_continuous
loop_start=86598
loop_xfade=32201
lovel=0
lpc=LJuhQlxLNsNp3gZDTHs4wrMdY0FoACbBpHWOQXEcy8COWPfAhKRhQavwvMCalSPB/VshQaRrMcDGhp2/I5QYQXNBscA6VCrBzNU6QSZVzMC9AqU/Jhd+QCSMDMATX6C+
lpc_rms=-28.33
offset=3066
sample=Bass_sustain_PP_E3.opus
</region>

<region>
hivel=127
key=E4
loop_end=249935
loop_mode=loop_continuous
loop_start=84459
loop_xfade=31406
lovel=0
lpc=ZCs+Q2F46cPA2+VDeppYw8iMyUEWN8bAWJCqQpqM3cJCviNCLJcLQjU0DMKui5DBca+6QamEQ0EGYuTByE+bQU+5kcAYO5nBITbFQeKdkMHtq5tBGZcwQWQONMI86/tB
lpc_rms=-18.35
offset=10630
sample=Bass_sustain_PP_E4.opus
</region>

<region>
hivel=127
key=F#2
loop_end=246359
loop_mode=loop_continuous
loop_start=83251
loop_xfade=30956
lovel=0
lpc=D1GjQl4oTcP0ykBDlzKpwv6A1EAa2KrAuLYVQuc32sFjj0/BLtXoQUrc/8AdHJHBhYCYQXuNA8BgJMHAnUgRQTEUwMCWDyDAaAnVQHflsMAP7dw/nKwuQOv5ysA3LE5A
lpc_rms=-26.75
offset=1120
sample=Bass_sustain_PP_F#2.opus
tune=-2
</region>

<region>
hivel=127
key=F#3
loop_end=254841
loop_mode=loop_continuous
loop_start=86117
loop_xfade=32022
lovel=0
lpc=w3GSQyt9DcQupKJDixKpwlO0NUHv6gZACYDAQYGwTcH2ZZxBM4BHQYadOcFVf7rBA3XOQNbsHj8lv7a/BqYGQnLoF8FMjb/BJcwowMxOZ0ECaZXBVJ4EwTEqRUH/vxZB
lpc_rms=-18.85
offset=1596
sample=Bass_sustain_PP_F#3.opus
tune=-3
</region>

<region>
hivel=127
key=F#4
loop_end=260822
loop_mode=loop_continuous
loop_start=88138
loop_xfade=32774
lovel=0
lpc=WHJxQ/N1B8R5YAREyg2Nw/BplUJCUUbCRNLpQhSB+8L9ehxC2donQsuSX8LHbNq/ubLbQRHOk8E3nmLBxygnQnWG78Ce2y7CDDB0Qm8OB8Jt58tAasy1QdGsn8HlSxxB
lpc_rms=-16.33
offset=18936
sample=Bass_sustain_PP_F#4.opus
</region>

<region>
hivel=127
key=F2
loop_end=252323
loop_mode=loop_continuous
loop_start=85266
loop_xfade=31706
lovel=0
lpc=pmWVQl5zMcMDmB5DwriEwspq8D9Gz83AqwYCQnGursFnQSjBLSDXQUjwBsG+B1/BU9sKQXAxjkDsnCnADlW7QDuxVsAWeGvARKmrQBt1hcCJco2/GELdQMWNPsHRVsVA
lpc_rms=-28.09
offset=273
sample=Bass_sustain_PP_F2.opus
tune=-2
</region>

<region>
hivel=127
key=F3
loop_end=260558
loop_mode=loop_continuous
loop_start=88049
loop_xfade=32741
lovel=0
lpc=P241Q4f1vsNahXRD1TmAwh04Y0AkqDZBb89iQWrIL8H4Z0G/gGqaQbwWL8F7/gDB93qVQFlBtb+4eonAS4ifQRSMTsEMiNzAtUa2v6s+i0DY+fy/1VRRQGo2GMF3fRFB
lpc_rms=-21.88
offset=3357
sample=Bass_sustain_PP_F3.opus
tune=-4
</region>

<region>
hivel=127
key=F4
loop_end=253440
loop_mode=loop_continuous
loop_start=85644
loop_xfade=31846
lovel=0
lpc=EBIEQ4s4pcNvW61DwSpMw3ZtjUK+BsXBy6dTQt/mnMJ5iytCPt8EQQCJ+MGXQIZBB87YPsxaVUAhA/fAzmglQYygX8Bb/rrBiFUxQmyXyMH0lMzAyd2yQfc60cELb3BB
lpc_rms=-19.26
offset=5879
sample=Bass_sustain_PP_F4.opus
tune=-1
</region>

<region>
hivel=127
key=G#2
loop_end=255795
loop_mode=loop_continuous
loop_start=86440
loop_xfade=32142
lovel=0
lpc=O/qoQkz+N8OHgx1DZDCRwpbflUA4HvXAvXXeQVnXjMFAiMLAVaSnQeaa+r4hQIbB0qsMQQ1EnkBEa7PAzr7KQEXZDkA6g//ABZeVQJ9vA8C9C8C/vepLP2xO8sBmtNpA
lpc_rms=-26.91
offset=5101
sample=Bass_sustain_PP_G#2.opus
tune=-9
</region>

<region>
hivel=127
key=G#3
loop_end=259392
loop_mode=loop_continuous
loop_start=87655
loop_xfade=32594
lovel=0
lpc=k+f8QmATlcMwzmBDWu2mwloPbEIT5UDCMCQbQlOqwcFqbm9B9thawfpbfEG/DcHBypnoQOIqNkGekhfBQnjIQMZ0k0DcvqfBJA6SQfsw/sAZLbhAUUV/QOibhMFGLh5B
lpc_rms=-21.53
offset=251
sample=Bass_sustain_PP_G#3.opus
tune=-2
</region>

<region>
hivel=127
key=G#4
loop_end=262967
loop_mode=loop_continuous
loop_start=88863
loop_xfade=33043
lovel=0
lpc=JyTAQrojacOBImNDfdbqwkazRUJQhT7CEx00Qr2Jp8FQQZ8+oDYjQXSVIsFCuEzADJSWQXd6gsFX2Ik/sJVaQdnUc8GFXxI/x9iiQXol28FIqXZAh+uwQemztMEZci9B
lpc_rms=-21.70
offset=5491
sample=Bass_sustain_PP_G#4.opus
</region>

<region>
hivel=127
key=G2
loop_end=260297
loop_mode=loop_continuous
loop_start=87961
loop_xfade=32708
lovel=0
lpc=E57KQgYVc8NLkltD4/3BwjZDr0BQt7y/7mAAQtSty8Gb19LAE1MHQiS0dsGJIaTBWbnMQcVQ+75by13BdfqHQYrFIcBhKCDBTJCwQF84ocDQEBBATyMywHP2EsH85S5B
lpc_rms=-25.81
offset=1227
sample=Bass_sustain_PP_G2.opus
tune=-2
</region>

<region>
hivel=127
key=G3
loop_end=263918
loop_mode=loop_continuous
loop_start=89185
loop_xfade=33163
lovel=0
lpc=pkBdQxXT3cP31XlDRZDHwuzimEKDu/hAbQYzQbv6xsEgU1ZB2DFqwIlmMUAaUgHBFBELwdnzTEAeUkS/yy/bQK/mlL5SkZu/MmgLQDcL2z4kJ6bACw/MQBiJ1MFGP65B
lpc_rms=-20.20
offset=8311
sample=Bass_sustain_PP_G3.opus
tune=-3
</region>

<region>
hivel=127
key=G4
loop_end=254570
loop_mode=loop_continuous
loop_start=86026
loop_xfade=31988
lovel=0
lpc=+3yhQokzXcNxbXRD6JoVw6kIjEILrRnCxSH6QfLXxMERdR1Bswu+QMRMiMFSOIdBCRpPwU3B5kB01LZABv8+wZolM0EchkzBKGMUQbrE78A53CRB9enPP6OcjsEfQkhB
lpc_rms=-21.78
offset=6897
sample=Bass_sustain_PP_G4.opus
tune=+1
</region>
</group>

<group>
amp_veltrack=0
ampeg_attack=2
ampeg_release=0.35
group_label=MF
lpc_hicc1=84
lpc_locc1=43
volume=-3

<region>
hivel=127
key=A#2
loop_end=260825
loop_mode=loop_continuous
loop_start=88139
loop_xfade=32774
lovel=0
lpc=2lAIQvUd0MKTZ/9COTShwi0W8UGISonBXUfFQX2fksH1FefA3nW4Qb0kZcH0nsW/BUQYQPFgj0CklKs+MB7hwFjAC0GscS/Bsr8IQd+1SsBMEglAEr8HwJYirb7ILnM/
lpc_rms=-22.23
offset=3122
sample=Bass_sustain_MF_A#2.opus
tune=+2
</region>

<region>
hivel=127
key=A#3
loop_end=264091
loop_mode=loop_continuous
loop_start=89243
loop_xfade=33185
lovel=0
lpc=8VQ8QR3r5cFHkNpBSJsuwSrPwD2J7aK/5dTjQOwC8sBuRzZAj48KPyKt5D4GDCzAHy6PPymAWD+78bA+0Nbav1ih6T4I8eQ/tZbSv0rEOr7WDUs/3B5bPyBVPsCDZOQ/
lpc_rms=-26.17
sample=Bass_sustain_MF_A#3.opus
tune=+1
</region>

<region>
hikey=G5
hivel=127
lokey=A#4
loop_end=248862
loop_mode=loop_continuous
loop_start=84097
loop_xfade=31271
lovel=0
lpc=vp0qQkeK2MKeLORCRhGDwvxvkEG+PxbBW4/HQcbotcEpICA/K/OBQcu4wsAFeCLBeqPYQN7wFMCivhBB7I/kwEKBBkDy9PXAcw52QVUCSMGXVZTAhcaZQWa2kMFpjfhA
lpc_rms=-23.84
offset=6823
pitch_keycenter=A#4
sample=Bass_sustain_MF_A#4.opus
</region>

<region>
hivel=127
key=A2
loop_end=264764
loop_mode=loop_continuous
loop_start=89471
loop_xfade=33269
lovel=0
lpc=i3wfQl8/6MIZrghDUvWxwuQtG0JjbVLB7q7yQOTi7sDjjGE/yZtNQMjofUB24DvBb3rqQA7T074uyts/2LZIvpuVscAlBNVAwrtXwOBXt78EoIxARd5WwAvyBr6AI5A/
lpc_rms=-19.57
offset=4620
sample=Bass_sustain_MF_A2.opus
</region>

<region>
hivel=127
key=A3
loop_end=261802
loop_mode=loop_continuous
loop_start=88470
loop_xfade=32897
lovel=0
lpc=+weFQe0bO8LfiVlC2NEDwiO4DUH55qE/wihIQOW8DcFBvYdARr6hQJaCosCxB0XAYOTCQGXES8CWZXw/4pb9PiN3EsD+/DVAQLQQwFVJAb7mjiJAHhIYvv7eTcDxteA/
lpc_rms=-25.11
offset=2346
sample=Bass_sustain_MF_A3.opus
tune=+1
</region>

<region>
hivel=127
key=A4
loop_end=260971
loop_mode=loop_continuous
loop_start=88189
loop_xfade=32793
lovel=0
lpc=gk1kQoSTEcN71htDQmCswlsweEBiK8FBYTe3QAPbk8Gawzw/IfROQcqWOMCTm1fBJ6C6PwrhcEFk5HLBvVHnQKrC0j/CB8jAh6KeQRO5u8HkuJFA7ZiKQZLM2sEO/nRB
lpc_rms=-18.46
offset=9923
sample=Bass_sustain_MF_A4.opus
tune=+1
</region>

<region>
hivel=127
key=B2
loop_end=258181
loop_mode=loop_continuous
loop_start=87246
loop_xfade=32442
lovel=0
lpc=7cA1QlAbCcMqxyZDNWLVwsBaK0JZnNXB534WQpQF+cGTDCC/P+bBQRF1hcEKHqPAMSoMQeh5dj441YI/PruDwHMdmECuyfbANefLQFj8rL8uy4u/fTmCQIlH9cCS04xA
lpc_rms=-21.07
offset=7051
sample=Bass_sustain_MF_B2.opus
tune=+1
</region>

<region>
hivel=127
key=B3
loop_end=260852
loop_mode=loop_continuous
loop_start=88148
loop_xfade=32778
lovel=0
lpc=HJCgQbjbW8JwlnVCgGMVwjlMREEs22DAKwAQQRxNG8H6+L8/9QnIQO4O1cA8aGe/LGlEQJh/CUBf//+/SuqLv9XdyD9aCr0/ia7uwECt90Cpt5e/KIlhwJGGRkAxs2G/
lpc_rms=-23.79
offset=2239
sample=Bass_sustain_MF_B3.opus
tune=+1
</region>

<region>
hivel=127
key=C#2
loop_end=265159
loop_mode=loop_continuous
loop_start=89604
loop_xfade=33319
lovel=0
lpc=Md/IQe6QgsIGZYBCpIvzwYWmOEHi2gzBrjruQI9ax8Dn5oBAgx4LPttCM8AecCM/WTdXvmXV3T+ywJ0/7syCv+qsUsCAiHc/tsWJQHZDpcBcX1BA3CKyv9vJGb75o4o+
lpc_rms=-22.34
offset=4206
sample=Bass_sustain_MF_C#2.opus
tune=+1
</region>

<region>
hivel=127
key=C#3
loop_end=260092
loop_mode=loop_continuous
loop_start=87892
loop_xfade=32682
lovel=0
lpc=DvYhQkd878IjFhBDYOq4wqNOHkJCQAbC/99FQpKaI8LBQoJAK8rUQaR3s8ELWVDARC+OQeMKl8GLRotBvykhwTaOfkB7x8fAcXkDQQb6lcA3a3JA/FPCwEw9AECAjYI/
lpc_rms=-20.79
offset=1847
sample=Bass_sustain_MF_C#3.opus
tune=+2
</region>

<region>
hivel=127
key=C#4
loop_end=261370
loop_mode=loop_continuous
loop_start=88324
loop_xfade=32843
lovel=0
lpc=RmzXQmqAksP/26BDh5lCw2hDqEJIvBvCLOgDQtg1+cH2O73A0a07QhJ+CsIa7a7ADLkuQQ+dpkDtL0fBLRRQQRNlNMGxeI5Bi/jIwQ7UlEEJgmhAaZSawXijkUBpDdFA
lpc_rms=-11.56
offset=5315
sample=Bass_sustain_MF_C#4.opus
tune=-1
</region>

<region>
hivel=127
key=C2
loop_end=262979
loop_mode=loop_continuous
loop_start=88867
loop_xfade=33045
lovel=0
lpc=GSwcQoEe48K9yvpCC+V0wksGEkHBO1TAgbxfQRBLWsGDAI9AJRcpwPHACUG95CTBQloiQP9Zp0A9qyjA3E3tvlbl4cAYdjZB61nZv9u67sCIrpNANH7nPyz8ZMAKuMA/
lpc_rms=-21.85
offset=1027
sample=Bass_sustain_MF_C2.opus
tune=-1
</region>

<region>
hivel=127
key=C3
loop_end=260842
loop_mode=loop_continuous
loop_start=88145
loop_xfade=32776
lovel=0
lpc=2MbvQasDosI8K7RC7MNxwhwgDUKRB7vBLhhiQbcOoMCKksK/MagnQKm/sz8aVYDArEoMQARiPsCTPNVAxlJvwBu73L8hmRpAdPCDvpp7dL919fo/KPKgv8SfDMD++fE/
lpc_rms=-21.15
offset=3844
sample=Bass_sustain_MF_C3.opus
tune=+2
</region>

<region>
hivel=127
key=C4
loop_end=257717
loop_mode=loop_continuous
loop_start=87089
loop_xfade=32384
lovel=0
lpc=zi2CQrUkPMOZn2BDkQUPw5uWQkLcppTBclItQkJ7UcKblt9Apk80Qnf2QsJPDtNArGq6QT/378CwlWnBwZOyQL9QbEHL1yPBFGAFwYBjJkEM7ZK+bk70wIJR50BQVrW/
lpc_rms=-14.97
offset=4276
sample=Bass_sustain_MF_C4.opus
</region>

<region>
hivel=127
key=D#2
loop_end=260525
loop_mode=loop_continuous
loop_start=88038
loop_xfade=32737
lovel=0
lpc=aQvwQeesqcKMfrtCCc9IwuyeIEEuRBVAuXTRQNB9g8G6S11BU1cHwWPfCUF9khbBSbJFQKGPZ0Cei7O/Mg8DvR5BeMCiQ4lAuG4wPyJQZ8BsxS1AyygHwIdJkD+2ie69
lpc_rms=-20.95
offset=1436
sample=Bass_sustain_MF_D#2.opus
tune=-1
</region>

<region>
hivel=127
key=D#3
loop_end=262397
loop_mode=loop_continuous
loop_start=88671
loop_xfade=32972
lovel=0
lpc=40T4QbhWq8Ljfb5CfZNwwm9v7kH0r6XBJC2tQZHBdsFjLFA/cuAqQVi3DMGPwyG+Gq8GQNFBz7+w3X9ADeqHv2NZb8DHmjRAZX26vvgYNr+irRu9XbZmQLaExMB6SEBA
lpc_rms=-23.47
offset=1067
sample=Bass_sustain_MF_D#3.opus
tune=+2
</region>

<region>
hivel=127
key=D#4
loop_end=264202
loop_mode=loop_continuous
loop_start=89281
loop_xfade=33198
lovel=0
lpc=Pq9dQmm0HsOnVi9DcQnGwqzHPULL5jzC8SJpQopeR8Kqo4BB8vmHQRleycG/azlBmhivwCzeSUE5wyTBZaKwQOHnR0AxwK7BQxipQeq1k8DYbFlAjRh8wFOM2sDVl9pA
lpc_rms=-15.94
offset=7522
sample=Bass_sustain_MF_D#4.opus
</region>

<region>
hivel=127
key=D2
loop_end=261819
loop_mode=loop_continuous
loop_start=88475
loop_xfade=32899
lovel=0
lpc=RrjyQSVYq8Kts7ZCuHcfwggOFMDzpSdBifiAv667IMHCqBNBD4tAwI3JkkAUou3AKNtIQPufwT2dMGBAogAmwCXnuMBGQ+BAg6MfQAan9MC9AHxAtN4nwIHzVUClwLK/
lpc_rms=-21.04
offset=3475
sample=Bass_sustain_MF_D2.opus
</region>

<region>
hivel=127
key=D3
loop_end=264206
loop_mode=loop_continuous
loop_start=89282
loop_xfade=33199
lovel=0
lpc=TQ8fQivR5MIUQvxCXlCIwirQwUFYgqXBKW7+Qf6x2cFsqKlAL8cUQe4N2sDEiwvAdsnWQA9t78CEFtVALX8qwL93tj9F4Y/ABtuNQNHXGsD0xxFA1Pp0wJ+6WkD6n2G/
lpc_rms=-20.79
offset=1713
sample=Bass_sustain_MF_D3.opus
tune=+1
</region>

<region>
hivel=127
key=D4
loop_end=267671
loop_mode=loop_continuous
loop_start=90453
loop_xfade=33634
lovel=0
lpc=U4uEQsstMcMqHjdDC+6hws7W3kClbJHBRRRgQmkHQMJYuMQ+a6inQaI7iMDv6FfB5fEXQfUt4b/M2PlAPTz0wA5twsBpAl9BMGKGwHnAZ8FW0G1BoEaxQPqZhcFSQBFB
lpc_rms=-15.61
sample=Bass_sustain_MF_D4.opus
</region>

<region>
hivel=127
key=E2
loop_end=258533
loop_mode=loop_continuous
loop_start=87365
loop_xfade=32486
lovel=0
lpc=yYfoQRSYq8LJTs1CKXWDwuqg0EHv8C3Bt1pUQa+FXcGIRJxA7FNiP046YEAccAbB47ptQKRW5z8LGYk/kmufv9cNhsB7/pJAfvubvti66L8kaJA/biECP0s9z7/48GI/
lpc_rms=-21.67
offset=1878
sample=Bass_sustain_MF_E2.opus
</region>

<region>
hivel=127
key=E3
loop_end=256169
loop_mode=loop_continuous
loop_start=86566
loop_xfade=32189
lovel=0
lpc=n7pIQg97EcNMyidDhm3QwvjEQEIh7x/C+sRUQg+rMsJG92lBVd23PXVyDUEdmJrBf3GVQfrOAMEGzX3AIklCQbRXKME8Ivw/g7KsP2ScJr+Xk4JACWr8wIHSg0DPArs9
lpc_rms=-20.94
offset=1279
sample=Bass_sustain_MF_E3.opus
</region>

<region>
hivel=127
key=E4
loop_end=263343
loop_mode=loop_continuous
loop_start=88990
loop_xfade=33091
lovel=0
lpc=DojgQhdTn8PnVbNDjNlWw1eVxEIHQYLCL9SDQgv8SsIldylB8uW6v9KCvEGOIRzCf2kHQt62m8DdDKnBqb9IQZ+jaEHEqu3BMWLnQeoMB8JWyS1CvJuCwU1xpMFBx31B
lpc_rms=-12.72
offset=5302
sample=Bass_sustain_MF_E4.opus
tune=-1
</region>

<region>
hivel=127
key=F#2
loop_end=265056
loop_mode=loop_continuous
loop_start=89569
loop_xfade=33306
lovel=0
lpc=nRoYQkp93cIcyQFD3daYwiJ2nkH6RXLAZjiMQUCO0MEHvWdB6uA+v1KNgz/7ziPB/9sJQYb/IkCCEqXAKP0sQDws17+17vC/yt64QEb0m8DQ1TxA77VBwJSY5z/d9AS9
lpc_rms=-17.70
offset=8226
sample=Bass_sustain_MF_F#2.opus
</region>

<region>
hivel=127
key=F#3
loop_end=262488
loop_mode=loop_continuous
loop_start=88702
loop_xfade=32983
lovel=0
lpc=FL3TQh3yoMPPlctDYmKewwzkQ0O9BMjC5hdKQpZGEMK7o4VBH6VCQc/4HcG8fODB47wnQpBqyMFawM9AKWepQFomq8AfNZfAC/MWQfs71UBHTMjBnFnKQe2DgsF0AsFA
lpc_rms=-13.66
offset=1586
sample=Bass_sustain_MF_F#3.opus
</region>

<region>
hivel=127
key=F#4
loop_end=260869
loop_mode=loop_continuous
loop_start=88154
loop_xfade=32780
lovel=0
lpc=E+eZQoXrUsMxynBDkHUqw/H84EIm9sDCHDyRQgI2ncEHtiLB4CtYQXcqicGceGFAqVyhQe1Ig8Fs2V7B8iy/QWLgwEAU0cvBuZiLQZvEWsGah1NBCaAOQMlPlMHy3jtB
lpc_rms=-12.37
offset=4137
sample=Bass_sustain_MF_F#4.opus
tune=+1
</region>

<region>
hivel=127
key=F2
loop_end=265223
loop_mode=loop_continuous
loop_start=89626
loop_xfade=33327
lovel=0
lpc=HuUUQm1l4MLLUwpDy5+vwpWTy0G4J2PA7XyOQWHb8sFdZpxBtBEOwBwoS75wSvrA7WAVQfYY88ANcFxBvh6MwV068EAXysBA/L/bwDYuqL/4aKBA0rE4wBfU5771z48/
lpc_rms=-20.03
offset=9238
sample=Bass_sustain_MF_F2.opus
tune=-1
</region>

<region>
hivel=127
key=F3
loop_end=264738
loop_mode=loop_continuous
loop_start=89462
loop_xfade=33266
lovel=0
lpc=99aZQqo4ZcNzqIdDzRQqw7WahUK7rerBFpUGQgdZxcHDrNXAx3ePQfZZBkBi2a/BSRWrQSXzNMGRthzAfwChQYZns8EA0j1BgWrawOlXv0DiH+PAYtC+QCmzkMBhpzVA
lpc_rms=-16.67
offset=2874
sample=Bass_sustain_MF_F3.opus
</region>

<region>
hivel=127
key=F4
loop_end=256751
loop_mode=loop_continuous
loop_start=86763
loop_xfade=32262
lovel=0
lpc=IXWAQvHPLMO0YzpDitjwwiMFnEKZG2DCV7ohQn/FB8Jsb3JBIMPPQHC0gMFOplBBEHw9wSLJvEHt4ufB0148QT6tqUEkHwvCDSWQQTwdSsEz27hBF4EywdV49cCM8MtA
lpc_rms=-15.44
offset=5584
sample=Bass_sustain_MF_F4.opus
</region>

<region>
hivel=127
key=G#2
loop_end=263823
loop_mode=loop_continuous
loop_start=89152
loop_xfade=33151
lovel=0
lpc=IRk6QtZICcPGOh1D/c2vwmGC1UHv6j3B8RigQeRb48G7p71BKXv/wGymqEDCPbTB6ZnOQcc9DcG2V7S8zC3UvnUMmr1ELCE9AScyP+H/NsCtjC5BqtuLwSTRIUGGBpa/
lpc_rms=-21.03
offset=5526
sample=Bass_sustain_MF_G#2.opus
tune=+3
</region>

<region>
hivel=127
key=G#3
loop_end=258853
loop_mode=loop_continuous
loop_start=87473
loop_xfade=32526
lovel=0
lpc=0AeMQnppQ8Na005DGu/3wgB0lEKAd0nCtMToQTnZW8F6DMBAfYiov0rwR7/79sjAZV+TwDEb0EEFxZ3BGJ6IQXk32sF0/ShBYqzQQXSrHMJ0ZohByoq8Px60j78La+6+
lpc_rms=-16.72
offset=1347
sample=Bass_sustain_MF_G#3.opus
tune=+1
</region>

<region>
hivel=127
key=G#4
loop_end=251378
loop_mode=loop_continuous
loop_start=84947
loop_xfade=31587
lovel=0
lpc=KgdEQp/XAcN18AxDbyWqwpRqEUIoEqXBGrCZQf6DGsGUG7K+z8CMQdaLEcKkZo1B5zs4QT3BesE5XGlA2z7tQGWnCL/u/RjB3U8GQTqvNMCTJb/AefNfQQiBNMFqy4VA
lpc_rms=-21.18
offset=6702
sample=Bass_sustain_MF_G#4.opus
</region>

<region>
hivel=127
key=G2
loop_end=259795
loop_mode=loop_continuous
loop_start=87791
loop_xfade=32645
lovel=0
lpc=OesyQqqmA8Oo/iBDpMTLwl7QyEGrkRU/tKGoQQZzKMKjeAJCbd7JwPXFnb8h/VHB1ZuKQa1Y6cBNuIZAOPunwLt9jkC/JxPAN5ECQJcBg8BPzQJBSfYfwbH+okCa5Hm/
lpc_rms=-17.60
offset=6351
sample=Bass_sustain_MF_G2.opus
</region>

<region>
hivel=127
key=G3
loop_end=258551
loop_mode=loop_continuous
loop_start=87371
loop_xfade=32488
lovel=0
lpc=drSuQlZodsPEUnlD+ljjwu1PGUJD4BDCz8x1QhpQmMLWkUNCot1IwK37t8H52DJBdushP103AkFApTzBJoa3Qd+Q58FcwhpBnWiNQAW4dMAyDgTBE9uYQaTePsGkHwdA
lpc_rms=-12.47
offset=1713
sample=Bass_sustain_MF_G3.opus
</region>

<region>
hivel=127
key=G4
loop_end=257811
loop_mode=loop_continuous
loop_start=87121
loop_xfade=32395
lovel=0
lpc=8EfwQecHoMIq4adCavFJwkVpD0KYYx7CwTATQrWWtsECVdRAUgLhQIVOgcHu8i1BEM2WQDGnN8ETqLhAtN4WwCKCLEGexZzB2PZhQWZB6r+rGee/JOEGQLFdnsAVqWNA
lpc_rms=-19.72
offset=3067
sample=Bass_sustain_MF_G4.opus
tune=+2
</region>
</group>

<group>
amp_veltrack=0
ampeg_attack=2
ampeg_release=0.35
group_label=FF
lpc_hicc1=127
lpc_locc1=85
volume=-3

<region>
hivel=127
key=A#2
loop_end=253276
loop_mode=loop_continuous
loop_start=85588
loop_xfade=31826
lovel=0
lpc=fZs8QdNQ48H448dB9hkAwbxgT7/fP6O/rmaJQL6E/LxdOsPANCOVQInzj75zE4g8KRsPwP49kz9AcE5AEIKAwABfIEAIMPK/YvK3vr5e6D/C5EC/8QiHP4MxEsA8sqI/
lpc_rms=-17.92
offset=2210
sample=Bass_sustain_FF_A#2.opus
tune=+2
</region>

<region>
hivel=127
key=A#3
loop_end=250521
loop_mode=loop_continuous
loop_start=84657
loop_xfade=31480
lovel=0
lpc=3xpTQY6DA8LGCQZCNmp+wXu+P0AVw8K/jYuEQK2gVMBiSO++C/hhQJRQTMDsPMo/H+urv6ugSj5cpOU/1lATwN3KUz92eOg+6dxcv47Yyz+pH+a/DNmsPzp9AMAHOY0/
lpc_rms=-18.70
offset=1807
sample=Bass_sustain_FF_A#3.opus
tune=+1
</region>

<region>
hikey=G5
hivel=127
lokey=A#4
loop_end=249821
loop_mode=loop_continuous
loop_start=84421
loop_xfade=31391
lovel=0
lpc=qF4YQYp6rsGg0pVBGmrRwERIFD81ybO/1TQpQGTBFcCJtQtAjYsbvxxBB8CEcipAJnM7v7xcJMC6yllAVL9fv6nrAEBUXZnAnzlrQJRTAMD4RS9AtFXYv83+hL/ny4Y/
lpc_rms=-23.25
offset=2717
pitch_keycenter=A#4
sample=Bass_sustain_FF_A#4.opus
tune=+1
</region>

<region>
hivel=127
key=A2
loop_end=255931
loop_mode=loop_continuous
loop_start=86486
loop_xfade=32159
lovel=0
lpc=PlNeQTlUEMJoCBhCKWGdwU0ad0AGmBbAMrimQGysqj6iVuTARASOQHa2jD+5HQTA0rEXP8G/8b+ryKNABgZOwJ1yf7/pGVs/hd1hP6DQob9fLvA9GD1CPyGy+b7HFXk+
lpc_rms=-16.61
offset=2711
sample=Bass_sustain_FF_A2.opus
</region>

<region>
hivel=127
key=A3
loop_end=255916
loop_mode=loop_continuous
loop_start=86481
loop_xfade=32157
lovel=0
lpc=9CcbQaf1xsFpgNhB99p0wRV/dEA7wg8+QHDBP5ZXAsANJpe/IMduQCjwE8DmsLy+7umsPwe+HcB7WU5AF9kywEa8ED/ZETlAwwOXwF28ZUCc8Ya/dNrIvvUpOb4qhc4+
lpc_rms=-20.45
offset=1077
sample=Bass_sustain_FF_A3.opus
tune=+2
</region>

<region>
hivel=127
key=A4
loop_end=253712
loop_mode=loop_continuous
loop_start=85736
loop_xfade=31880
lovel=0
lpc=gxLOQWEaY8KkLT9CqEWdwSsCI0DFBL9Af54Bwbj/gEDClzLADSUaQSJkDsFc7Mg9fTgdvo6KiL4KAo9ACPlkwDmr6T8PyrjAv1o1QVqVj8CvTJnA1bTMQPY12sAJapBA
lpc_rms=-16.86
offset=3114
sample=Bass_sustain_FF_A4.opus
tune=+1
</region>

<region>
hivel=127
key=B2
loop_end=260247
loop_mode=loop_continuous
loop_start=87944
loop_xfade=32702
lovel=0
lpc=q758QcNOH8Ly5RtCu3WNwTjGZEC1jTLA5Xu6QKl4NcAGJ93AD8pKQYQ0HcFJMIFACBOnv1iVjT+HMkg+9phBwMhWo0BPjGXAsTB+PipL1D/9qbe/OHuzPy2QLcBCEPo/
lpc_rms=-17.39
offset=2675
sample=Bass_sustain_FF_B2.opus
tune=+1
</region>

<region>
hivel=127
key=B3
loop_end=257514
loop_mode=loop_continuous
loop_start=87021
loop_xfade=32358
lovel=0
lpc=nHxEQbq2/sHvNQhCGfulwVPBFEGLH2TA7tRAQEkY5L+k+CXAvMSYQBaGgMBzK+M/ttJHPmKCt76qvsI/MtwuwBmJtz+EbME/gL6KwK5/akAx1ng+jw0zvzSr3L80460/
lpc_rms=-19.38
offset=893
sample=Bass_sustain_FF_B3.opus
</region>

<region>
hivel=127
key=C#2
loop_end=253877
loop_mode=loop_continuous
loop_start=85791
loop_xfade=31901
lovel=0
lpc=LVYMQUxzocFJ55xB91ckwY0ZTkAzAwPAPTk7QFU0HT5dnF3AyAA2PzEbMEDuiAPAhgIavzwClj/jNZA/HyETwC2URz/C4O+7tMqfPriYOD/egoPAvGa2QJH8bMC+IFw/
lpc_rms=-17.25
offset=6260
sample=Bass_sustain_FF_C#2.opus
tune=+1
</region>

<region>
hivel=127
key=C#3
loop_end=250372
loop_mode=loop_continuous
loop_start=84607
loop_xfade=31461
lovel=0
lpc=kiHQQRgbf8KifFpCrS6qwXECJ0F7lRbBsV6mQFxRcMAGkZtAV5HgP/57IsFJAb4/AIK/QCCqyD+8/TXARFukPzNzksCLYW5AGhMzP0VtCMBfCwXARHyAQL8B3b7DnYm/
lpc_rms=-17.54
offset=1574
sample=Bass_sustain_FF_C#3.opus
tune=+1
</region>

<region>
hivel=127
key=C#4
loop_end=247984
loop_mode=loop_continuous
loop_start=83800
loop_xfade=31161
lovel=0
lpc=zg4YQpiIu8LTlaBC4d7HwRRM/kBTZznBOPhGQIs0kz+PA/LA3bjdQWrYBMKuHn9B18TbwP4VpkBKBxNAyeL1wMcjCUE3Dg/Am/EDwc5A8EDQh6g9fCnRPx25CcGQzMNA
lpc_rms=-10.54
offset=2686
sample=Bass_sustain_FF_C#4.opus
</region>

<region>
hivel=127
key=C2
loop_end=270020
loop_mode=loop_continuous
loop_start=91247
loop_xfade=33930
lovel=0
lpc=cUY4QejZ48GbmuRB8eFpwd8lS0AxKWC/YhUqQHwCCD8IZtbA2cqmQDe79T+uKsDAZWq+QPiknMBcsslAry/mwEcegUDLsFu/q/cPP+J557+sK3s/oUH+P+WXScDwq6s/
lpc_rms=-13.54
offset=557
sample=Bass_sustain_FF_C2.opus
tune=-24
</region>

<region>
hivel=127
key=C3
loop_end=252537
loop_mode=loop_continuous
loop_start=85339
loop_xfade=31733
lovel=0
lpc=QV1bQc0ZAML6FNdBPZQNwbYsvj6hLb+/hPk9QGd/1T1pBty/Xthxv7iV6T48YoE/4D5SPlyu179+xU9AFkkZwBx5ij6Leog8Toj1PlYzWb8tcZC++IIfP7PL3z7CCqi+
lpc_rms=-18.04
offset=2880
sample=Bass_sustain_FF_C3.opus
tune=-1
</region>

<region>
hivel=127
key=C4
loop_end=260026
loop_mode=loop_continuous
loop_start=87869
loop_xfade=32674
lovel=0
lpc=5pnmQU+om8LnUqRCiGorwgGLPEG7CADAYp6uP6x0rL3P2CnBZSa0QVdbmcGqdgZBQ/WrwAmRnD9IecBAgoANwfi18EDTDZQ/bH0jwQjOEUEz27K/yRZSwGz9Fz8kVrc/
lpc_rms=-12.67
offset=15188
sample=Bass_sustain_FF_C4.opus
</region>

<region>
hivel=127
key=D#2
loop_end=260533
loop_mode=loop_continuous
loop_start=88041
loop_xfade=32737
lovel=0
lpc=ptEgQTdxv8H+vrtB5IZAwYksoj+JhSBAdZ98vyRFLkDdy8DAZ4doQBZdbz6CvOa/LWrKP1ohLb9pkvE/Caz2v/tlWr9bU9c/mYxfv2auvr4gZNA+6eKuP7pd7L8xnTI/
lpc_rms=-16.07
offset=2677
sample=Bass_sustain_FF_D#2.opus
tune=+1
</region>

<region>
hivel=127
key=D#3
loop_end=253491
loop_mode=loop_continuous
loop_start=85661
loop_xfade=31853
lovel=0
lpc=te94Qe0/GsIRkg5CBc9jwdLrJEDAz0HAi+hXQMrfbr8FUdI/hoBUv/cFVsA1O7s+69e7QKYmu8Dg1hFA5r/kP6tR2r99v9a/L1QrQJXdCMAVb3w/yUOWvwDo3z+cDE+/
lpc_rms=-19.42
offset=769
sample=Bass_sustain_FF_D#3.opus
</region>

<region>
hivel=127
key=D#4
loop_end=256282
loop_mode=loop_continuous
loop_start=86604
loop_xfade=32203
lovel=0
lpc=NoURQrswwcLms9FCdCtjwi5SZ0FNnuTAFDYsQc49D8HLVOFACkTIvyS6jL+DcLfAew5pQGdNq0B8H7rAJo3rwBKzo0GsbHzBZHI6QI1Qq8BF58FBbrDnwbC+SEFu6Nm+
lpc_rms=-12.83
offset=7218
sample=Bass_sustain_FF_D#4.opus
tune=-2
</region>

<region>
hivel=127
key=D2
loop_end=252717
loop_mode=loop_continuous
loop_start=85399
loop_xfade=31755
lovel=0
lpc=KR8SQdf0qMEiRaVBKCgowc+m0T9eFFS+ytYjQJslu7735lfASdfTP3RvBECi2EbAF5WpP52rKr9OEUhAb1dgwNstAj9F3oY+PmDFP3OXicB5Ql1A7VZDP82YHsByS4U/
lpc_rms=-15.89
offset=3124
sample=Bass_sustain_FF_D2.opus
tune=+2
</region>

<region>
hivel=127
key=D3
loop_end=260486
loop_mode=loop_continuous
loop_start=88025
loop_xfade=32732
lovel=0
lpc=6rm4Qd6BdsKfYnlCZzX+wac8XUH9qjHBWdUPQceIucCni8dAT2tlwDSMocCjJ6BAyHARQEMDecD/QbA/K32eP38rAcCoPcU/EOzyv/Mb/z/lW5a/BMQ3wIH4qUA+hQ3A
lpc_rms=-18.40
offset=1092
sample=Bass_sustain_FF_D3.opus
</region>

<region>
hivel=127
key=D4
loop_end=255042
loop_mode=loop_continuous
loop_start=86185
loop_xfade=32048
lovel=0
lpc=QZkoQkdtzcIvlbdCmVgkwv25nkGhRnjBOqZXQay7SsFU3OlA4ZA8wJ1RMbvzZUnAd8wzQVQPZ8F66DxBu9nSwLfSQ0DsmKq+ZN7zv3AKaL8Om7JA1psNwfxPwUA+vTS+
lpc_rms=-12.64
sample=Bass_sustain_FF_D4.opus
</region>

<region>
hivel=127
key=E2
loop_end=263270
loop_mode=loop_continuous
loop_start=88966
loop_xfade=33081
lovel=0
lpc=7z8kQUIezMG2PtlBvQeAwWWecED16B0/T6wlPwdUiD++QnfAf5s+QA4TeL9MYPO+01O6PkVeFr4rhwNA7X8WwHaHEj+rFSe+8XDvP75CtsAidNhAruhMwN/XJj8Mq/C9
lpc_rms=-17.16
offset=24626
sample=Bass_sustain_FF_E2.opus
tune=+1
</region>

<region>
hivel=127
key=E3
loop_end=253078
loop_mode=loop_continuous
loop_start=85522
loop_xfade=31801
lovel=0
lpc=iOrEQQoMgsK+VXxC/AzmwYVsPUHslurAe0CfPU/6nUAN/qjAO3ZQQAsILMBCrvE/q2btP3SD+sApSh9Bq8YDvipSgsDnbn3Ay7AdQKd/KkA5m0BAkoSowJ60yr6SCeM/
lpc_rms=-17.11
offset=3257
sample=Bass_sustain_FF_E3.opus
tune=+2
</region>

<region>
hivel=127
key=E4
loop_end=259126
loop_mode=loop_continuous
loop_start=87565
loop_xfade=32561
lovel=0
lpc=G6UiQlJXvcIJOK1CpuAewrdheUFq0TfBSsMJQY42x8ASRDM/SLISQY/YgMHix2dBJb81wfjffT+n/CtBjFIUwcTQ4T5LnEtAALbuwLuKCUHpQCpARXOvwBaz7sAj2hZB
lpc_rms=-13.00
offset=6717
sample=Bass_sustain_FF_E4.opus
tune=-1
</region>

<region>
hivel=127
key=F#2
loop_end=255137
loop_mode=loop_continuous
loop_start=86217
loop_xfade=32060
lovel=0
lpc=XkczQWfO2sHjd+BBUmeEwWsbvUC6QyDAtGGZQACubcDQT4q+hayiv7iwc0CmQgPAVnrkvz4uckDucOm/u42fPx7xfMDV2YNAqTIMwOSUoD/7fDrA/ty8QD4fssCA4wpA
lpc_rms=-13.47
sample=Bass_sustain_FF_F#2.opus
tune=+2
</region>

<region>
hivel=127
key=F#3
loop_end=261323
loop_mode=loop_continuous
loop_start=88308
loop_xfade=32837
lovel=0
lpc=RfokQse+3MLb2+NC7rOLwtPHVkLx91HC5JUqQikCyMEAuby/wfRGQc7xhz9VJR7BaUVyQFibJMB/EYlAql+1vydt+T8hKyRA9G2EwUuinkG+sx7B+hrNQFUCEcFt3aFA
lpc_rms=-11.70
offset=1062
sample=Bass_sustain_FF_F#3.opus
tune=+1
</region>

<region>
hivel=127
key=F#4
loop_end=253955
loop_mode=loop_continuous
loop_start=85818
loop_xfade=31911
lovel=0
lpc=KstDQgtI7cICVtJCJ8BIwuAB/UEnhs7BQymcQd7DaMHo1DXAvC2PQbQKccEwKB1B8S9fwUSBTkFAWWPAENuPvzsPakBhgSfAUcQDwVIIq0BxX4JBQrk8wZZTOcEB8ShB
lpc_rms=-10.76
offset=3217
sample=Bass_sustain_FF_F#4.opus
tune=+1
</region>

<region>
hivel=127
key=F2
loop_end=263468
loop_mode=loop_continuous
loop_start=89033
loop_xfade=33106
lovel=0
lpc=tkwnQZb4xcGlZcRBASliwWeEoUAb2STAAP6KQO53HcAHrv++odKWv1QeLkAeTT3AH1wAQNLBWL8Ncx9Ab/hPwLCa8j9mt8+/UDJBP5b0jT1ZU5q/kGN9QKKcf8B8Frg/
lpc_rms=-15.94
offset=8805
sample=Bass_sustain_FF_F2.opus
</region>

<region>
hivel=127
key=F3
loop_end=255694
loop_mode=loop_continuous
loop_start=86405
loop_xfade=32130
lovel=0
lpc=FlerQRfJXsKzH2ZCkcL8waw560Am47BA+9QdwFGeWcDbIHHA0oA/QRt1KMEa9s5AYNqnwPuijz8ll6VAQ1u5wJ+9ZUDB3qe/SykKv+Jzer6ACSU+pIJGQCA4sMCYRzdA
lpc_rms=-14.70
offset=1431
sample=Bass_sustain_FF_F3.opus
tune=+2
</region>

<region>
hivel=127
key=F4
loop_end=257495
loop_mode=loop_continuous
loop_start=87014
loop_xfade=32356
lovel=0
lpc=BsfMQXL/dsJ9slZC9xy0wW3yBkHWDajA0aP6QOGa2MANh7TAXZlXQdx36MCoxC4/Lo6vPzyxLcF0KpFB7+llwZQ2CUGShF9A60FiwVuMBUHlelo/upAAQNv3CcESD7FA
lpc_rms=-12.66
offset=10531
sample=Bass_sustain_FF_F4.opus
</region>

<region>
hivel=127
key=G#2
loop_end=262752
loop_mode=loop_continuous
loop_start=88791
loop_xfade=33016
lovel=0
lpc=EFhMQfsIAsL+zApCdneawUYKLECL0QBAnCNDQHMtDsDqqZXApySsQD2dvr+VB8C/RQnjPjAyZD+cKT9ARkSiwL7TFEDzMPe9QveOPUdwbr8CBcG/4OzDQM8qtcB9aOU/
lpc_rms=-14.84
offset=13484
sample=Bass_sustain_FF_G#2.opus
tune=-1
</region>

<region>
hivel=127
key=G#3
loop_end=255151
loop_mode=loop_continuous
loop_start=86222
loop_xfade=32061
lovel=0
lpc=ehf0QapKo8LAF6hCgr48wl9xw0FTE2vBWIquQAsdWUB1/WfB1Z6pQV34XsESRq8/TXrCPzDw8D9jSXXAswBZQD0V8z+QXgbB7X6QQCaaq0AQzI7ASLbNPwWv1MAlmaBA
lpc_rms=-14.49
offset=7501
sample=Bass_sustain_FF_G#3.opus
</region>

<region>
hivel=127
key=G#4
loop_end=261490
loop_mode=loop_continuous
loop_start=88364
loop_xfade=32858
lovel=0
lpc=nnXQQSBrW8JDQBVC7W8ewXK2GUGhtUzBHK9SQdDSMsH/Pma/QiEjQaoz/sAj11FALxilwDlIV0DxTW8/7hjaP/FFUr951F3ADvSaPhLeb0CGVyk/JvGBwAa7CkCTw7M+
lpc_rms=-15.61
offset=5941
sample=Bass_sustain_FF_G#4.opus
tune=+1
</region>

<region>
hivel=127
key=G2
loop_end=265301
loop_mode=loop_continuous
loop_start=89652
loop_xfade=33337
lovel=0
lpc=Ke+FQVQQL8I4pz9CaGDxwfiiPUGnctHAHCIwQeXrB8Hqg9o+UeXRvgTrpEDOrtTA3FcbQEJ7OUDJvea/PcZtP86pdsBzsIVA7gjQv5/ra76t7ALAcAa3QM1olsAacbI/
lpc_rms=-12.72
offset=8776
sample=Bass_sustain_FF_G2.opus
tune=+2
</region>

<region>
hivel=127
key=G3
loop_end=263026
loop_mode=loop_continuous
loop_start=88883
loop_xfade=33051
lovel=0
lpc=edYYQodzzsLfGchCBlQZwvxex0D3sSrBeoW1QcBp0MFctStB+2PbP+6LGEDGDMDAkWNAP/89nEDf7BXBw/VbQWrO7cA4gNLANfUBQde9K0D3SBnBGQbtQKmKeMBOAuY/
lpc_rms=-9.09
offset=1694
sample=Bass_sustain_FF_G3.opus
tune=+1
</region>

<region>
hivel=127
key=G4
loop_end=260457
loop_mode=loop_continuous
loop_start=88015
loop_xfade=32728
lovel=0
lpc=65syQj7T2sIk6MhCyBxUwna+EkJ9JqHB1b7Bv2823z9fNSvAPziHQVmEssF8PUtBVbuSwKW4p7+KkQRBJD7BwC4Ryb8MkIpA+niDvzS0/sB9WXhBKBcOwacmpcA5eNFA
lpc_rms=-13.47
offset=4572
sample=Bass_sustain_FF_G4.opus
tune=+1
</region>
</group>